<?xml version="1.0" encoding="UTF-8"?>
<svg id="Layer_1" xmlns="http://www.w3.org/2000/svg" version="1.1" viewBox="0 0 932 837.89">
  <!-- Generator: Adobe Illustrator 29.5.0, SVG Export Plug-In . SVG Version: 2.1.0 Build 137)  -->
  <defs>
    <style>
      .st0 {
        fill: #505050;
        font-family: Arial-BoldMT, Arial;
        font-size: 12px;
        font-weight: 700;
      }

      .st0, .st1 {
        isolation: isolate;
      }

      .st2 {
        stroke: #aaa;
        stroke-dasharray: 3.47 6.94;
        stroke-dashoffset: 6.94px;
        stroke-width: .21px;
      }

      .st2, .st3 {
        stroke-linecap: round;
        stroke-miterlimit: 6.94;
      }

      .st2, .st3, .st4 {
        fill: none;
      }

      .st3 {
        stroke: #000;
        stroke-width: .69px;
      }

      .st1 {
        font-family: Arial-ItalicMT, Arial;
        font-size: 13.89px;
        font-style: italic;
      }

      .st4 {
        stroke: #505050;
        stroke-miterlimit: 10;
      }
    </style>
  </defs>
  <g id="mainHolder">
    <g id="treeHolder">
      <g>
        <path class="st2" d="M365.19,798.54h-3.47"/>
        <text class="st1" transform="translate(365.19 802.71)"><tspan x="0" y="0">Drosophila santomea</tspan></text>
        <path class="st3" d="M361.72,798.54h-2.69"/>
      </g>
      <g>
        <path class="st2" d="M365.11,777.71h-3.47"/>
        <text class="st1" transform="translate(365.11 781.87)"><tspan x="0" y="0">Drosophila yakuba</tspan></text>
        <path class="st3" d="M361.63,777.71h-2.6"/>
      </g>
      <g>
        <path class="st2" d="M364.46,756.87h-3.47"/>
        <text class="st1" transform="translate(364.46 761.04)"><tspan x="0" y="0">Drosophila teissieri</tspan></text>
        <path class="st3" d="M360.99,756.87h-5.2"/>
      </g>
      <g>
        <path class="st2" d="M365.47,736.04h-3.47"/>
        <text class="st1" transform="translate(365.47 740.21)"><tspan x="0" y="0">Drosophila erecta</tspan></text>
        <path class="st3" d="M362,736.04h-11.77"/>
      </g>
      <g>
        <path class="st2" d="M372.77,715.21h-3.47"/>
        <text class="st1" transform="translate(372.77 719.37)"><tspan x="0" y="0">Drosophila sechellia</tspan></text>
        <path class="st3" d="M369.3,715.21h-7.78"/>
      </g>
      <g>
        <path class="st2" d="M367.78,694.37h-3.47"/>
        <text class="st1" transform="translate(367.78 698.54)"><tspan x="0" y="0">Drosophila simulans</tspan></text>
        <path class="st3" d="M364.31,694.37h-2.79"/>
      </g>
      <g>
        <path class="st2" d="M366.75,673.54h-3.47"/>
        <text class="st1" transform="translate(366.75 677.71)"><tspan x="0" y="0">Drosophila mauritiana</tspan></text>
        <path class="st3" d="M363.28,673.54h-2.15"/>
      </g>
      <g>
        <path class="st2" d="M367.33,652.71h-3.47"/>
        <text class="st1" transform="translate(367.33 656.87)"><tspan x="0" y="0">Drosophila melanogaster</tspan></text>
        <path class="st3" d="M363.86,652.71h-6.84"/>
      </g>
      <g>
        <path class="st2" d="M359.41,631.87h-3.47"/>
        <text class="st1" transform="translate(359.41 636.04)"><tspan x="0" y="0">Drosophila eugracilis</tspan></text>
        <path class="st3" d="M355.94,631.87h-27.89"/>
      </g>
      <g>
        <path class="st2" d="M352.74,611.04h-3.47"/>
        <text class="st1" transform="translate(352.74 615.21)"><tspan x="0" y="0">Drosophila subpulchrella</tspan></text>
        <path class="st3" d="M349.27,611.04h-4.65"/>
      </g>
      <g>
        <path class="st2" d="M353.2,590.21h-3.47"/>
        <text class="st1" transform="translate(353.2 594.37)"><tspan x="0" y="0">Drosophila suzukii</tspan></text>
        <path class="st3" d="M349.72,590.21h-5.1"/>
      </g>
      <g>
        <path class="st2" d="M355.87,569.37h-3.47"/>
        <text class="st1" transform="translate(355.87 573.54)"><tspan x="0" y="0">Drosophila biarmipes</tspan></text>
        <path class="st3" d="M352.4,569.37h-13.03"/>
      </g>
      <g>
        <path class="st2" d="M356.13,548.54h-3.47"/>
        <text class="st1" transform="translate(356.13 552.71)"><tspan x="0" y="0">Drosophila takahashii</tspan></text>
        <path class="st3" d="M352.66,548.54h-21.7"/>
      </g>
      <g>
        <path class="st2" d="M353.33,527.71h-3.47"/>
        <text class="st1" transform="translate(353.33 531.88)"><tspan x="0" y="0">Drosophila elegans</tspan></text>
        <path class="st3" d="M349.86,527.71h-5.77"/>
      </g>
      <g>
        <path class="st2" d="M352.38,506.88h-3.47"/>
        <text class="st1" transform="translate(352.38 511.04)"><tspan x="0" y="0">Drosophila gunungcola</tspan></text>
        <path class="st3" d="M348.91,506.88h-4.82"/>
      </g>
      <g>
        <path class="st2" d="M350,486.04h-3.47"/>
        <text class="st1" transform="translate(350 490.21)"><tspan x="0" y="0">Drosophila rhopaloa</tspan></text>
        <path class="st3" d="M346.53,486.04h-17.84"/>
      </g>
      <g>
        <path class="st2" d="M360.81,465.21h-3.47"/>
        <text class="st1" transform="translate(360.81 469.38)"><tspan x="0" y="0">Drosophila ananassae</tspan></text>
        <path class="st3" d="M357.34,465.21h-64.03"/>
      </g>
      <g>
        <path class="st2" d="M350.44,444.38h-3.47"/>
        <text class="st1" transform="translate(350.44 448.54)"><tspan x="0" y="0">Drosophila guanche</tspan></text>
        <path class="st3" d="M346.97,444.38h-6.95"/>
      </g>
      <g>
        <path class="st2" d="M348.02,423.54h-3.47"/>
        <text class="st1" transform="translate(348.02 427.71)"><tspan x="0" y="0">Drosophila subobscura</tspan></text>
        <path class="st3" d="M344.55,423.54h-4.53"/>
      </g>
      <g>
        <path class="st2" d="M342.27,402.71h-3.47"/>
        <text class="st1" transform="translate(342.27 406.88)"><tspan x="0" y="0">Drosophila obscura</tspan></text>
        <path class="st3" d="M338.8,402.71h-15.65"/>
      </g>
      <g>
        <path class="st2" d="M340.13,381.88h-3.47"/>
        <text class="st1" transform="translate(340.13 386.04)"><tspan x="0" y="0">Drosophila persimilis</tspan></text>
        <path class="st3" d="M336.65,381.88h-1.73"/>
      </g>
      <g>
        <path class="st2" d="M340.29,361.04h-3.47"/>
        <text class="st1" transform="translate(340.29 365.21)"><tspan x="0" y="0">Drosophila pseudoobscura</tspan></text>
        <path class="st3" d="M336.81,361.04h-1.88"/>
      </g>
      <g>
        <path class="st2" d="M340.47,340.21h-3.47"/>
        <text class="st1" transform="translate(340.47 344.38)"><tspan x="0" y="0">Drosophila miranda</tspan></text>
        <path class="st3" d="M337,340.21h-3.93"/>
      </g>
      <g>
        <path class="st2" d="M347.3,319.38h-3.47"/>
        <text class="st1" transform="translate(347.3 323.54)"><tspan x="0" y="0">Drosophila willistoni</tspan></text>
        <path class="st3" d="M343.83,319.38h-110.28"/>
      </g>
      <g>
        <path class="st2" d="M768.14,298.54h-3.47"/>
        <text class="st1" transform="translate(768.14 302.71)"><tspan x="0" y="0">Glossina morsitans</tspan></text>
        <path class="st3" d="M764.67,298.54h-232.05"/>
      </g>
      <g>
        <path class="st2" d="M672.71,277.71h-3.47"/>
        <text class="st1" transform="translate(672.71 281.88)"><tspan x="0" y="0">Lucilia cuprina</tspan></text>
        <path class="st3" d="M669.23,277.71h-136.62"/>
      </g>
      <g>
        <path class="st2" d="M292.55,256.88h-3.47"/>
        <text class="st1" transform="translate(292.55 261.04)"><tspan x="0" y="0">Drosophila busckii</tspan></text>
        <path class="st3" d="M289.08,256.88h-113.8"/>
      </g>
      <g>
        <path class="st2" d="M243.11,236.04h-3.47"/>
        <text class="st1" transform="translate(243.11 240.21)"><tspan x="0" y="0">Drosophila albomicans</tspan></text>
        <path class="st3" d="M239.64,236.04h-57.97"/>
      </g>
      <g>
        <path class="st2" d="M227.77,215.21h-3.47"/>
        <text class="st1" transform="translate(227.77 219.38)"><tspan x="0" y="0">Drosophila innubila</tspan></text>
        <path class="st3" d="M224.3,215.21h-42.63"/>
      </g>
      <g>
        <path class="st2" d="M219.34,194.38h-3.47"/>
        <text class="st1" transform="translate(219.34 198.54)"><tspan x="0" y="0">Drosophila grimshawi</tspan></text>
        <path class="st3" d="M215.87,194.38h-70.14"/>
      </g>
      <g>
        <path class="st2" d="M169.65,173.54h-3.47"/>
        <text class="st1" transform="translate(169.65 177.71)"><tspan x="0" y="0">Drosophila virilis</tspan></text>
        <path class="st3" d="M166.18,173.54h-35.6"/>
      </g>
      <g>
        <path class="st2" d="M122.1,152.71h-3.47"/>
        <text class="st1" transform="translate(122.09 156.88)"><tspan x="0" y="0">Drosophila hydei</tspan></text>
        <path class="st3" d="M118.62,152.71h-20.82"/>
      </g>
      <g>
        <path class="st2" d="M90.13,131.88h-3.47"/>
        <text class="st1" transform="translate(90.13 136.04)"><tspan x="0" y="0">Drosophila arizonae</tspan></text>
        <path class="st3" d="M86.66,131.88h-5.93"/>
      </g>
      <g>
        <path class="st2" d="M87.5,111.04h-3.47"/>
        <text class="st1" transform="translate(87.5 115.21)"><tspan x="0" y="0">Drosophila mojavensis</tspan></text>
        <path class="st3" d="M84.03,111.04h-3.3"/>
      </g>
      <g>
        <path class="st2" d="M79.25,90.21h-3.47"/>
        <text class="st1" transform="translate(79.25 94.38)"><tspan x="0" y="0">Drosophila navojoa</tspan></text>
        <path class="st3" d="M75.78,90.21h-5.56"/>
      </g>
      <path class="st3" d="M80.73,121.46h-4.95M80.73,131.88v-20.83"/>
      <path class="st3" d="M532.62,288.13H212.93M532.62,298.54v-20.83"/>
      <path class="st3" d="M334.93,371.46h-1.85M334.93,381.88v-20.83"/>
      <path class="st3" d="M333.07,355.83h-15.66M333.07,371.46v-31.25"/>
      <path class="st3" d="M340.02,433.96h-16.87M340.02,444.38v-20.83"/>
      <path class="st3" d="M323.14,418.33h-5.73M323.14,433.96v-31.25"/>
      <path class="st3" d="M317.41,387.08h-55.38M317.41,418.33v-62.5"/>
      <path class="st3" d="M344.09,517.29h-15.4M344.09,527.71v-20.83"/>
      <path class="st3" d="M328.69,501.67h-8.06M328.69,517.29v-31.25"/>
      <path class="st3" d="M361.52,704.79h-.39M361.52,715.21v-20.83"/>
      <path class="st3" d="M361.13,689.17h-4.11M361.13,704.79v-31.25"/>
      <path class="st3" d="M357.02,670.94h-9.67M357.02,689.17v-36.46"/>
      <path class="st3" d="M359.03,788.12h-3.24M359.03,798.54v-20.83"/>
      <path class="st3" d="M355.79,772.5h-5.56M355.79,788.12v-31.25"/>
      <path class="st3" d="M350.23,754.27h-2.89M350.23,772.5v-36.46"/>
      <path class="st3" d="M347.34,712.6h-19.29M347.34,754.27v-83.33"/>
      <path class="st3" d="M328.05,672.24h-2.56M328.05,712.6v-80.73"/>
      <path class="st3" d="M344.62,600.62h-5.26M344.62,611.04v-20.83"/>
      <path class="st3" d="M339.37,585h-8.4M339.37,600.62v-31.25"/>
      <path class="st3" d="M330.96,566.77h-5.47M330.96,585v-36.46"/>
      <path class="st3" d="M325.49,619.5h-4.87M325.49,672.24v-105.47"/>
      <path class="st3" d="M320.63,560.59h-27.31M320.63,619.5v-117.84"/>
      <path class="st3" d="M293.31,512.9h-31.28M293.31,560.59v-95.38"/>
      <path class="st3" d="M262.03,449.99h-28.48M262.03,512.9v-125.81"/>
      <path class="st3" d="M233.55,384.68h-20.62M233.55,449.99v-130.61"/>
      <path class="st3" d="M212.93,336.41h-37.65M212.93,384.68v-96.56"/>
      <path class="st3" d="M175.27,296.64h-16.66M175.27,336.41v-79.53"/>
      <path class="st3" d="M181.66,225.63h-23.06M181.66,236.04v-20.83"/>
      <path class="st3" d="M158.61,261.13h-12.88M158.61,296.64v-71.01"/>
      <path class="st3" d="M145.73,227.76h-15.15M145.73,261.13v-66.76"/>
      <path class="st3" d="M130.58,200.65h-32.78M130.58,227.76v-54.21"/>
      <path class="st3" d="M97.8,176.68h-22.02M97.8,200.65v-47.94"/>
      <path class="st3" d="M75.78,149.07h-5.56M75.78,176.68v-55.22"/>
      <path class="st3" d="M70.22,119.64h0M70.22,149.07v-58.86"/>
    </g>
  </g>
  <g id="wrapperHolder">
    <g>
      <text class="st0" transform="translate(70 62)"><tspan x="0" y="0">Tree scale: 0.1</tspan></text>
      <path class="st4" d="M162.06,58.4h76.46"/>
      <path class="st4" d="M162.06,55.4v6M238.52,55.4v6M200.29,58.4v2"/>
    </g>
  </g>
</svg>